# xmcd
#
# Track frame offsets:
#	150
#	9166
#	20351
#	31939
#	43620
#	54052
#
# Disc length: 850 seconds
#
# Revision: 1
# Processed by: cddbd v1.5.1PL0 Copyright (c) Steve Scherf et al.
# Submitted via: EasyCDDAExtractor 5.0.6
#
DISCID=33035006
DTITLE=The Mint Chicks - Octagon, Octagon, Octagon
DYEAR=2003
DGENRE=Indie Rock
TTITLE0=Post No Bills
TTITLE1=Octagon, Octagon, Octagon
TTITLE2=The Son
TTITLE3=Licking Letters
TTITLE4=Fat Gut Strut
TTITLE5=Double Helix
EXTD=
EXTT0=
EXTT1=
EXTT2=
EXTT3=
EXTT4=
EXTT5=
PLAYORDER=
